<?xml version="1.0" encoding="UTF-8"?>
<svg width="378px" height="233px" viewBox="0 0 378 233" version="1.1" xmlns="http://www.w3.org/2000/svg" xmlns:xlink="http://www.w3.org/1999/xlink">
    <title>Artwork</title>
    <g id="Service-pages" stroke="none" stroke-width="1" fill="none" fill-rule="evenodd">
        <g id="Desktop---Service---Error" transform="translate(-536.000000, -237.000000)">
            <g id="Artwork" transform="translate(536.000000, 237.000000)">
                <path d="M309.6495,232.723 C286.1875,232.723 271.2305,215.241 248.9135,206.329 C234.8285,200.917 219.8975,198.325 204.9415,198.325 C185.3655,198.325 165.7465,202.768 147.9415,211.142 C127.8945,220.152 99.6205,228.342 73.2665,228.342 C41.5605,228.342 12.6355,216.481 4.1955,179.923 C-1.5815,155.079 6.9135,137.672 29.7275,128.397 C38.4605,124.995 47.5025,119.868 52.4355,111.118 C59.2425,99.434 51.1825,81.757 49.6655,69.242 C45.5455,33.496 65.5345,24.046 92.8985,24.046 C108.2485,24.046 125.9205,27.021 142.9565,29.995 C159.9935,32.969 176.3925,35.944 189.2035,35.943 C194.5135,35.943 199.2085,35.432 203.0745,34.198 L201.0155,34.34 C210.4805,31.588 215.3675,22.139 224.0545,18.039 C229.1005,15.865 233.7935,14.922 238.2165,14.922 C264.3305,14.922 281.0065,47.809 305.0225,54.558 C317.6475,57.9 329.2155,55.706 341.9785,61.141 C357.5765,67.785 365.6375,85.461 365.4195,103.002 C364.4235,119.197 351.4805,129.672 344.1265,143.496 C335.4005,157.415 338.5595,163.508 342.9585,177.928 C350.7025,201.236 346.7005,226.274 320.1805,231.596 C316.4675,232.372 312.9745,232.723 309.6495,232.723" id="Fill-4" fill="#BBEAED"></path>
                <path d="M188.8825,28.187 C185.3355,28.187 185.3355,22.687 188.8825,22.687 C192.4295,22.687 192.4295,28.187 188.8825,28.187" id="Fill-5" fill="#BBEAED"></path>
                <path d="M25.9455,112.75 C18.8515,112.75 18.8515,101.75 25.9455,101.75 C33.0385,101.75 33.0385,112.75 25.9455,112.75" id="Fill-6" fill="#BBEAED"></path>
                <path d="M356.6325,156.612 C349.5385,156.612 349.5385,145.612 356.6325,145.612 C363.7265,145.612 363.7265,156.612 356.6325,156.612" id="Fill-7" fill="#BBEAED"></path>
                <path d="M170.3205,25.437 C163.2265,25.437 163.2265,14.437 170.3205,14.437 C177.4135,14.437 177.4135,25.437 170.3205,25.437" id="Fill-8" fill="#BBEAED"></path>
                <path d="M367.6325,139.15 C358.4105,139.15 358.4105,124.85 367.6325,124.85 C376.8545,124.85 376.8545,139.15 367.6325,139.15" id="Fill-9" fill="#BBEAED"></path>
                <path d="M7.3835,130.9 C-1.8385,130.9 -1.8385,116.6 7.3835,116.6 C16.6045,116.6 16.6045,130.9 7.3835,130.9" id="Fill-10" fill="#BBEAED"></path>
                <path d="M312.6325,44.962 C303.4105,44.962 303.4105,30.662 312.6325,30.662 C321.8545,30.662 321.8545,44.962 312.6325,44.962" id="Fill-11" fill="#BBEAED"></path>
                <path d="M186.1325,16.5 C175.4925,16.5 175.4925,0 186.1325,0 C196.7735,0 196.7735,16.5 186.1325,16.5" id="Fill-12" fill="#BBEAED"></path>
                <path d="M373.5455,152.074 C368.2255,152.074 368.2255,143.824 373.5455,143.824 C378.8655,143.824 378.8655,152.074 373.5455,152.074" id="Fill-13" fill="#BBEAED"></path>
                <path d="M5.4575,107.937 C0.1375,107.937 0.1375,99.687 5.4575,99.687 C10.7785,99.687 10.7785,107.937 5.4575,107.937" id="Fill-14" fill="#BBEAED"></path>
                <path d="M329.8205,52.937 C324.4995,52.937 324.4995,44.687 329.8205,44.687 C335.1405,44.687 335.1405,52.937 329.8205,52.937" id="Fill-15" fill="#BBEAED"></path>
                <path d="M328.4455,37.812 C324.8985,37.812 324.8985,32.312 328.4455,32.312 C331.9915,32.312 331.9915,37.812 328.4455,37.812" id="Fill-16" fill="#BBEAED"></path>
                <path d="M49.8705,28.324 C42.7775,28.324 42.7775,17.324 49.8705,17.324 C56.9645,17.324 56.9645,28.324 49.8705,28.324" id="Fill-17" fill="#BBEAED"></path>
                <path d="M362.8205,217.938 C355.7265,217.938 355.7265,206.938 362.8205,206.938 C369.9135,206.938 369.9135,217.938 362.8205,217.938" id="Fill-18" fill="#BBEAED"></path>
                <path d="M5.3205,222.75 C-1.7735,222.75 -1.7735,211.75 5.3205,211.75 C12.4145,211.75 12.4145,222.75 5.3205,222.75" id="Fill-19" fill="#BBEAED"></path>
                <path d="M66.3705,20.074 C62.8235,20.074 62.8235,14.574 66.3705,14.574 C69.9175,14.574 69.9175,20.074 66.3705,20.074" id="Fill-20" fill="#BBEAED"></path>
                <path d="M363.5075,195.938 C359.9605,195.938 359.9605,190.438 363.5075,190.438 C367.0545,190.438 367.0545,195.938 363.5075,195.938" id="Fill-21" fill="#BBEAED"></path>
                <path d="M21.8205,229.625 C18.2735,229.625 18.2735,224.125 21.8205,224.125 C25.3665,224.125 25.3665,229.625 21.8205,229.625" id="Fill-22" fill="#BBEAED"></path>
                <path d="M105.3345,137.023 C101.6295,138.331 99.1835,138.582 97.2845,134.834 C95.8235,131.949 94.8485,128.969 93.0085,126.268 C89.0205,120.414 85.1575,120.021 78.7725,120.855 C72.4345,121.683 63.7885,120.064 62.8265,112.735 C62.1405,107.511 62.1005,102.708 59.8135,97.821 C58.6875,95.413 55.1315,97.509 56.2525,99.903 C58.7895,105.325 57.6795,111.229 59.5365,116.752 C61.4205,122.356 67.6945,124.163 72.9675,124.792 C76.9525,125.267 80.4415,124.306 84.3485,124.311 C88.5445,124.316 91.4085,131.513 92.7395,134.673 C95.5105,141.26 99.4385,143.47 106.4305,141 C108.9215,140.121 107.8485,136.135 105.3345,137.023" id="Fill-23" fill="#121514"></path>
                <path d="M61.7415,92.254 C60.5075,93.871 58.9975,94.882 57.1995,95.787 C55.2995,96.744 56.9705,99.591 58.8655,98.636 C61.2025,97.459 63.0015,96.002 64.5915,93.92 C65.1385,93.203 64.7035,92.074 63.9995,91.662 C63.1515,91.165 62.2865,91.541 61.7415,92.254" id="Fill-24" fill="#121514"></path>
                <path d="M55.8334918,87.862 C55.8425,91.351 56.3515,94.822 56.3835,98.312 C56.4025,100.439 59.7025,100.441 59.6825,98.312 C59.6515,94.822 59.1425,91.351 59.1335,87.862 C59.1275,85.734 55.8275,85.734 55.8334918,87.862" id="Fill-25" fill="#121514"></path>
                <path d="M50.2665,91.229 C52.4745,93.989 54.7175,96.742 57.7495,98.636 C59.5605,99.767 61.2155,96.911 59.4155,95.787 C56.6465,94.058 54.6145,91.412 52.5995,88.896 C51.2705,87.234 48.9515,89.585 50.2665,91.229" id="Fill-26" fill="#121514"></path>
                <path d="M47.5165,96.178 C50.5875,99.081 54.4145,100.043 58.4715,98.803 C60.5005,98.183 59.6355,94.997 57.5945,95.62 C54.6645,96.516 52.0915,95.964 49.8495,93.845 C48.3055,92.384 45.9675,94.714 47.5165,96.178" id="Fill-27" fill="#121514"></path>
                <path d="M274.0455,147.261 C274.1945,141.871 275.9955,140.072 281.1995,139.648 C284.5805,139.372 288.0105,139.419 291.3545,138.796 C296.4575,137.846 296.3635,130.806 298.3375,127.173 C301.3535,121.624 309.4555,122.214 314.6845,120.574 C320.4455,118.769 322.6565,113.892 322.9955,108.212 C323.1555,105.553 319.0295,105.569 318.8705,108.212 C318.3655,116.662 312.1675,116.956 305.3615,118.356 C299.3615,119.591 295.2975,122.879 293.2115,128.661 C292.5585,130.471 292.4005,134.244 290.2575,134.819 C286.7695,135.754 282.7545,135.327 279.1655,135.716 C272.4215,136.446 270.0975,140.861 269.9205,147.261 C269.8475,149.923 273.9725,149.916 274.0455,147.261" id="Fill-28" fill="#121514"></path>
                <path d="M313.2915,103.15 C314.7015,106.512 317.1315,108.943 320.4945,110.353 C321.3255,110.701 322.3095,109.984 322.5245,109.2 C322.7855,108.249 322.2005,107.518 321.3715,107.17 C319.2025,106.261 317.3835,104.442 316.4735,102.273 C316.1255,101.444 315.3955,100.859 314.4445,101.12 C313.6605,101.336 312.9435,102.319 313.2915,103.15" id="Fill-29" fill="#121514"></path>
                <path d="M318.1825,98.862 C318.1825,101.612 318.1825,104.362 318.1825,107.112 C318.1825,109.24 321.4835,109.24 321.4835,107.112 C321.4835,104.362 321.4835,101.612 321.4835,98.862 C321.4835,96.734 318.1825,96.734 318.1825,98.862" id="Fill-30" fill="#121514"></path>
                <path d="M323.7415,99.523 C322.7415,102.408 321.0155,104.579 318.6655,106.495 C317.0165,107.841 319.3655,110.161 320.9995,108.828 C323.7965,106.547 325.7405,103.814 326.9235,100.4 C327.6225,98.384 324.4345,97.526 323.7415,99.523" id="Fill-31" fill="#121514"></path>
                <path d="M327.7585,102.979 C326.3215,105.259 324.0495,106.715 321.5945,107.721 C319.6535,108.517 320.5015,111.711 322.4715,110.904 C325.7595,109.555 328.6775,107.706 330.6085,104.645 C331.7465,102.84 328.8905,101.185 327.7585,102.979" id="Fill-32" fill="#121514"></path>
                <path d="M293.7105,207.028 C293.7105,209.913 272.1065,210.751 269.7715,210.751 L108.0945,210.751 C105.7625,210.751 84.1555,209.913 84.1555,207.028 L103.8695,177.476 C103.8695,174.59 105.7625,172.251 108.0945,172.251 L269.7715,172.251 C272.1065,172.251 273.9965,174.59 273.9965,177.476 L293.7105,207.028" id="Fill-33" fill="#A4A6A3"></path>
                <polyline id="Fill-34" fill="#2F3230" points="155.6845 200.445 114.1325 200.445 121.4035 182.845 158.9855 182.845 155.6845 200.445"></polyline>
                <polyline id="Fill-35" fill="#2F3230" points="222.1815 200.445 263.7335 200.445 256.4605 182.845 218.8805 182.845 222.1815 200.445"></polyline>
                <polyline id="Fill-36" fill="#2F3230" points="268.3515 200.445 282.9835 200.445 271.0105 182.845 259.9725 182.845 268.3515 200.445"></polyline>
                <polyline id="Fill-37" fill="#2F3230" points="109.5165 200.445 94.8835 200.445 106.8575 182.845 117.8935 182.845 109.5165 200.445"></polyline>
                <polyline id="Fill-38" fill="#2F3230" points="218.5265 200.445 159.3385 200.445 162.6385 182.845 215.2265 182.845 218.5265 200.445"></polyline>
                <polygon id="Fill-39" fill="#A4A6A3" points="98.4945 188.751 279.3725 188.751 279.3725 186.057 98.4945 186.057"></polygon>
                <polygon id="Fill-40" fill="#A4A6A3" points="96.5335 195.351 281.3335 195.351 281.3335 192.656 96.5335 192.656"></polygon>
                <path d="M294.8175,213.872 C294.8175,216.205 294.3335,218.096 292.0025,218.096 L85.8645,218.096 C83.5295,218.096 83.0485,216.205 83.0485,213.872 L83.0485,210.25 C83.0485,207.917 83.5295,206.027 85.8645,206.027 L292.0025,206.027 C294.3335,206.027 294.8175,207.917 294.8175,210.25 L294.8175,213.872" id="Fill-41" fill="#2F3230"></path>
                <path d="M227.5705,212.162 C227.5705,213.377 226.5855,214.363 225.3705,214.363 L152.4955,214.363 C151.2805,214.363 150.2955,213.377 150.2955,212.162 C150.2955,210.947 151.2805,209.962 152.4955,209.962 L225.3705,209.962 C226.5855,209.962 227.5705,210.947 227.5705,212.162" id="Fill-42" fill="#5E6360"></path>
                <path d="M276.1085,173.487 C276.1085,175.82 274.2175,177.712 271.8825,177.712 L105.9835,177.712 C103.6495,177.712 101.7575,175.82 101.7575,173.487 L101.7575,65.254 C101.7575,62.921 103.6495,61.028 105.9835,61.028 L271.8825,61.028 C274.2175,61.028 276.1085,62.921 276.1085,65.254 L276.1085,173.487" id="Fill-43" fill="#2F3230"></path>
                <path d="M188.9335,66.906 C191.2035,66.906 191.2035,63.385 188.9335,63.385 C186.6625,63.385 186.6625,66.906 188.9335,66.906" id="Fill-44" fill="#FFFFFE"></path>
                <path d="M263.9045,166.683 C263.9045,168.69 262.2775,170.317 260.2725,170.317 L117.5955,170.317 C115.5895,170.317 113.9605,168.69 113.9605,166.683 L113.9605,73.606 C113.9605,71.599 115.5895,69.972 117.5955,69.972 L260.2725,69.972 C262.2775,69.972 263.9045,71.599 263.9045,73.606 L263.9045,166.683" id="Fill-45" fill="#FFFFFE"></path>
                <path d="M165.9395,106.532 L153.4935,118.976 C152.8485,119.621 152.8485,120.666 153.4935,121.31 C154.1375,121.954 155.1825,121.954 155.8265,121.31 L168.2725,108.866 C168.9175,108.221 168.9175,107.177 168.2735,106.532 C167.6285,105.888 166.5835,105.888 165.9395,106.532" id="Fill-46" fill="#325265"></path>
                <path d="M168.2725,118.979 L155.8275,106.533 C155.1835,105.889 154.1385,105.889 153.4945,106.533 C152.8495,107.178 152.8495,108.222 153.4945,108.867 L165.9395,121.312 C166.5835,121.956 167.6285,121.956 168.2725,121.312 C168.9175,120.668 168.9175,119.623 168.2725,118.979" id="Fill-47" fill="#325265"></path>
                <path d="M222.0395,106.532 L209.5925,118.976 C208.9485,119.621 208.9485,120.666 209.5925,121.31 C210.2375,121.954 211.2815,121.954 211.9265,121.31 L224.3725,108.866 C225.0165,108.221 225.0165,107.177 224.3725,106.532 C223.7285,105.888 222.6835,105.888 222.0395,106.532" id="Fill-48" fill="#325265"></path>
                <path d="M224.3725,118.979 L211.9285,106.533 C211.2835,105.889 210.2395,105.889 209.5945,106.533 C208.9505,107.178 208.9505,108.222 209.5945,108.867 L222.0395,121.312 C222.6835,121.956 223.7285,121.956 224.3725,121.312 C225.0165,120.668 225.0165,119.623 224.3725,118.979" id="Fill-49" fill="#325265"></path>
                <path d="M217.6195,135.162 L217.6195,147.445 C217.6195,149.876 215.6495,151.845 213.2195,151.845 L210.8465,151.845 C208.4165,151.845 206.4465,149.876 206.4465,147.445 L206.4465,135.162" id="Fill-50" fill="#EA8FA2"></path>
                <polyline id="Fill-51" fill="#E67A94" points="213.9625 135.803 212.0325 150.103 210.1035 135.803 213.9625 135.803"></polyline>
                <path d="M151.6395,136.523 L226.2265,136.523 C226.9855,136.523 227.6015,135.908 227.6015,135.148 C227.6015,134.389 226.9855,133.773 226.2265,133.773 L151.6395,133.773 C150.8805,133.773 150.2645,134.389 150.2645,135.148 C150.2645,135.908 150.8805,136.523 151.6395,136.523" id="Fill-52" fill="#325265"></path>
                <path d="M139.4335,133.329 C146.5275,133.329 146.5275,122.329 139.4335,122.329 C132.3395,122.329 132.3395,133.329 139.4335,133.329" id="Fill-53" fill="#F0B6BF"></path>
                <path d="M238.4335,133.329 C245.5275,133.329 245.5275,122.329 238.4335,122.329 C231.3395,122.329 231.3395,133.329 238.4335,133.329" id="Fill-54" fill="#F0B6BF"></path>
            </g>
        </g>
    </g>
</svg>