<svg id="Layer_2" data-name="Layer 2" xmlns="http://www.w3.org/2000/svg" xmlns:xlink="http://www.w3.org/1999/xlink" viewBox="0 0 2177.35 367.26"><defs><style>.cls-1{fill:url(#White_Black);}.cls-2{fill:url(#White_Black-2);}.cls-3{fill:url(#linear-gradient);}.cls-4{fill:url(#White_Black-3);}.cls-5{fill:url(#linear-gradient-2);}.cls-6{fill:url(#linear-gradient-3);}.cls-7{fill:url(#linear-gradient-4);}.cls-8{fill:url(#linear-gradient-5);}.cls-9{fill:url(#linear-gradient-6);}.cls-10{fill:url(#linear-gradient-7);}.cls-11{fill:url(#linear-gradient-8);}.cls-12{fill:none;clip-rule:evenodd;}.cls-13{mask:url(#mask);}.cls-14{mask:url(#mask-2);}.cls-15{mask:url(#mask-3);}.cls-16{fill:#fff;}.cls-17{clip-path:url(#clip-path);}.cls-18{fill:url(#linear-gradient-9);}.cls-19{clip-path:url(#clip-path-2);}.cls-20{fill:url(#linear-gradient-10);}.cls-21{clip-path:url(#clip-path-3);}.cls-22{fill:url(#linear-gradient-11);}.cls-23{clip-path:url(#clip-path-4);}.cls-24{fill:url(#linear-gradient-12);}.cls-25{mask:url(#mask-4);}.cls-26{fill:#f1c30f;}.cls-26,.cls-28,.cls-30,.cls-32,.cls-34,.cls-36,.cls-38{fill-rule:evenodd;}.cls-27{mask:url(#mask-5);}.cls-28{fill:#fa5c98;}.cls-29{mask:url(#mask-6);}.cls-30{fill:#3e6bbd;}.cls-31{mask:url(#mask-7);}.cls-32{fill:#004790;}.cls-33{mask:url(#mask-8);}.cls-34{fill:#5e147d;}.cls-35{mask:url(#mask-9);}.cls-36{fill:#fde3a7;}.cls-37{mask:url(#mask-10);}.cls-38{fill:#ffbcd8;}.cls-39{mask:url(#mask-11);}</style><linearGradient id="White_Black" x1="-2138.9" y1="1087.01" x2="-2289.64" y2="985.74" gradientTransform="translate(668.36 -348.47) rotate(-180)" gradientUnits="userSpaceOnUse"><stop offset="0" stop-color="#fff"/><stop offset="1" stop-color="#231f20"/></linearGradient><linearGradient id="White_Black-2" x1="3896.96" y1="1429.35" x2="3411.13" y2="1102.96" gradientTransform="translate(-2225.15 -4460.11) rotate(90)" xlink:href="#White_Black"/><linearGradient id="linear-gradient" x1="-583.33" y1="1091.85" x2="-42.85" y2="814.34" gradientTransform="translate(733.54 -656.75)" gradientUnits="userSpaceOnUse"><stop offset="0" stop-color="#fff"/><stop offset="1"/></linearGradient><linearGradient id="White_Black-3" x1="4217.82" y1="300.42" x2="3731.99" y2="-25.97" gradientTransform="translate(-7226.66 -1558.42)" xlink:href="#White_Black"/><linearGradient id="linear-gradient-2" x1="-193.22" y1="431.66" x2="-251.35" y2="1011.38" gradientTransform="translate(380.44 -623.54)" xlink:href="#linear-gradient"/><linearGradient id="linear-gradient-3" x1="25.42" y1="636.74" x2="-286.55" y2="973.82" gradientTransform="translate(487.79 -695.31)" xlink:href="#linear-gradient"/><linearGradient id="linear-gradient-4" x1="-268.86" y1="705.34" x2="-270.91" y2="1038.28" gradientTransform="translate(733.54 -664.56)" xlink:href="#linear-gradient"/><linearGradient id="linear-gradient-5" x1="-401.22" y1="1001.45" x2="-164.78" y2="819.71" gradientTransform="translate(770.61 -849.38)" xlink:href="#linear-gradient"/><linearGradient id="linear-gradient-6" x1="-336.52" y1="937.94" x2="-135.96" y2="997.64" gradientTransform="translate(487.79 -695.27)" xlink:href="#linear-gradient"/><linearGradient id="linear-gradient-7" x1="-15.85" y1="855.26" x2="-387.07" y2="1017.26" gradientTransform="translate(463.68 -913.34)" xlink:href="#linear-gradient"/><linearGradient id="linear-gradient-8" x1="-154.65" y1="940.74" x2="-403.1" y2="1011.58" gradientTransform="translate(797.06 -966.4)" xlink:href="#linear-gradient"/><mask id="mask" x="2855.39" y="-1397.08" width="168.2" height="109.01" maskUnits="userSpaceOnUse"><g transform="translate(0 4.03)"><rect class="cls-1" x="2860.36" y="-1391.65" width="158.25" height="90.1" transform="translate(189.55 353.92) rotate(-7.12)"/></g></mask><mask id="mask-2" x="-3544.08" y="-1256.2" width="351.34" height="542.08" maskUnits="userSpaceOnUse"><g transform="translate(0 4.03)"><rect class="cls-2" x="-3513.6" y="-1244.2" width="290.37" height="510.03" transform="translate(96.62 -425.08) rotate(-7.12)"/></g></mask><mask id="mask-3" x="-3705.89" y="-1715.73" width="542.08" height="351.34" maskUnits="userSpaceOnUse"><g transform="translate(0 4.03)"><rect class="cls-4" x="-3689.86" y="-1689.28" width="510.03" height="290.37" transform="translate(164.88 -437.59) rotate(-7.12)"/></g></mask><clipPath id="clip-path" transform="translate(0 4.03)"><path class="cls-12" d="M454.76,90.08a91.54,91.54,0,0,1,0,183.07c-61.34,0-65.95-11.81-117.93,46.57a180.9,180.9,0,0,0,117.93,43.51c100.3,0,181.62-81.32,181.62-181.62A181.57,181.57,0,0,0,542.8,22.73C373.56-4,353.46,143.3,372.19,147.79c9.74-32.53,29.82-57.71,82.57-57.71"/></clipPath><linearGradient id="linear-gradient-9" x1="405.82" y1="8.41" x2="573.35" y2="371.77" gradientUnits="userSpaceOnUse"><stop offset="0" stop-color="#0070ad"/><stop offset="1" stop-color="#fa5ced"/></linearGradient><clipPath id="clip-path-2" transform="translate(0 4.03)"><path class="cls-12" d="M544.69,164.5a91.6,91.6,0,0,1-89.93,108.65c-59.94,0-65.72-11.26-114.47,42.71l11.5,15.36h0c.21,0,206.25,12.06,234.34-112.22,7.21-31.92-10.78-48.08-41.45-54.51"/></clipPath><linearGradient id="linear-gradient-10" x1="361.26" y1="28.96" x2="528.78" y2="392.32" xlink:href="#linear-gradient-9"/><clipPath id="clip-path-3" transform="translate(0 4.03)"><path class="cls-12" d="M279.7,133.11c-18,65-1.94,140-98.09,140-32.53,0-63-17.31-79.21-42.88,16.37,47.79,72.45,110.89,231.18,50.84a181.75,181.75,0,0,0,27.56-71.9c3.15-20.6,5.31-42.28,11.05-61.42,0,0,31.2-144.66,170.61-125.06A181.74,181.74,0,0,0,279.7,133.11"/></clipPath><linearGradient id="linear-gradient-11" x1="477.57" y1="-40.66" x2="238.51" y2="291.41" gradientUnits="userSpaceOnUse"><stop offset="0" stop-color="#fa5c98"/><stop offset="1" stop-color="#8e44ad"/></linearGradient><clipPath id="clip-path-4" transform="translate(0 4.03)"><path class="cls-12" d="M333.58,281.11C251,304.74,115.23,308.84,92.11,200.88a91.62,91.62,0,0,1,89.5-110.8c66.28,0,45.13,35.19,117.93-46.57A180.88,180.88,0,0,0,181.61,0C81.32,0,0,81.32,0,181.61S81.32,363.23,181.61,363.23a182,182,0,0,0,152-82.12"/></clipPath><linearGradient id="linear-gradient-12" x1="211.81" y1="3.38" x2="121.72" y2="368.07" gradientUnits="userSpaceOnUse"><stop offset="0" stop-color="#f1c40f"/><stop offset="1" stop-color="#da3c78"/></linearGradient><mask id="mask-4" x="0" y="4.03" width="299.54" height="363.23" maskUnits="userSpaceOnUse"><g transform="translate(0 4.03)"><rect class="cls-5" width="299.54" height="363.23"/></g></mask><mask id="mask-5" x="102.4" y="4.03" width="440.4" height="294.77" maskUnits="userSpaceOnUse"><g transform="translate(0 4.03)"><rect class="cls-6" x="102.4" width="440.4" height="294.77"/></g></mask><mask id="mask-6" x="336.83" y="53.7" width="253.92" height="274.42" maskUnits="userSpaceOnUse"><g transform="translate(0 4.03)"><rect class="cls-7" x="336.83" y="49.68" width="253.92" height="274.42"/></g></mask><mask id="mask-7" x="372.19" y="24.93" width="170.61" height="126.89" maskUnits="userSpaceOnUse"><g transform="translate(0 4.03)"><rect class="cls-8" x="372.19" y="20.9" width="170.61" height="126.89"/></g></mask><mask id="mask-8" x="102.4" y="234.29" width="231.18" height="64.54" maskUnits="userSpaceOnUse"><g transform="translate(0 4.03)"><rect class="cls-9" x="102.4" y="230.27" width="231.18" height="64.54"/></g></mask><mask id="mask-9" x="79.4" y="26.58" width="220.15" height="64.23" maskUnits="userSpaceOnUse"><g transform="translate(0 4.03)"><rect class="cls-10" x="79.4" y="22.55" width="220.15" height="64.23"/></g></mask><mask id="mask-10" x="397.42" y="14.79" width="145.38" height="25.4" maskUnits="userSpaceOnUse"><g transform="translate(0 4.03)"><rect class="cls-11" x="397.42" y="10.77" width="145.38" height="25.4"/></g></mask><mask id="mask-11" x="336.83" y="223.04" width="249.31" height="112.54" maskUnits="userSpaceOnUse"><g transform="translate(0 4.03)"><rect class="cls-3" x="336.83" y="219.01" width="249.31" height="112.54"/></g></mask></defs><path class="cls-16" d="M998.74,69.65V290.9h-46V69.65Z" transform="translate(0 4.03)"/><path class="cls-16" d="M1058.59,103.57a24.81,24.81,0,0,1-17.56-6.8,22.14,22.14,0,0,1,.06-32.9,25.88,25.88,0,0,1,35.05,0,22.17,22.17,0,0,1,0,32.89A24.67,24.67,0,0,1,1058.59,103.57ZM1035.47,290.9V125h46V290.9Z" transform="translate(0 4.03)"/><path class="cls-16" d="M1118.22,290.9V125h43.86v29.27H1164a46.06,46.06,0,0,1,17.29-23q12.09-8.43,29-8.43,17.07,0,29.06,8.48a40.42,40.42,0,0,1,16,23H1257a44.33,44.33,0,0,1,18.42-22.85q13.33-8.58,31.6-8.59,23.22,0,37.76,14.75t14.53,41.76V290.9h-45.92V188.38q0-13.83-7.34-20.74t-18.37-6.92q-12.53,0-19.55,7.94t-7,20.91V290.9h-44.61V187.41q0-12.21-7-19.45t-18.31-7.24a25.33,25.33,0,0,0-13.78,3.84,27.1,27.1,0,0,0-9.67,10.69,34.46,34.46,0,0,0-3.56,16.05v99.6Z" transform="translate(0 4.03)"/><path class="cls-16" d="M1418.76,103.57a24.79,24.79,0,0,1-17.55-6.8,22.13,22.13,0,0,1,0-32.9,25.9,25.9,0,0,1,35.06,0,22.19,22.19,0,0,1,0,32.89A24.69,24.69,0,0,1,1418.76,103.57ZM1395.64,290.9V125h46V290.9Z" transform="translate(0 4.03)"/><path class="cls-16" d="M1566.65,125v34.57h-99.93V125Zm-77.24-39.76h46v154.7q0,6.38,2,9.89a10.57,10.57,0,0,0,5.45,4.91,21.79,21.79,0,0,0,8.16,1.41,35.52,35.52,0,0,0,6.48-.6l5-.92,7.24,34.25q-3.47,1.08-9.72,2.54a81.89,81.89,0,0,1-15.24,1.78q-16.63.65-29.11-4.43A40.59,40.59,0,0,1,1496.22,273q-6.92-10.7-6.81-27Z" transform="translate(0 4.03)"/><path class="cls-16" d="M1646.05,69.65V290.9h-46V69.65Z" transform="translate(0 4.03)"/><path class="cls-16" d="M1758.4,294.14q-25.61,0-44-10.42a70.5,70.5,0,0,1-28.36-29.6q-9.94-19.19-9.94-45.43,0-25.6,9.94-44.94a73.33,73.33,0,0,1,28-30.14q18.1-10.8,42.51-10.81a87.9,87.9,0,0,1,30.63,5.24A69.28,69.28,0,0,1,1812,143.76a71.69,71.69,0,0,1,16.58,26.31q5.94,15.83,5.94,37v12.64H1694.45V191.19h96.79a35.25,35.25,0,0,0-4.32-17.61A31.48,31.48,0,0,0,1775,161.53a34.86,34.86,0,0,0-17.66-4.37,35.39,35.39,0,0,0-18.53,4.81,34.46,34.46,0,0,0-12.58,12.85,36.57,36.57,0,0,0-4.65,17.88v27.12q0,12.31,4.59,21.28a32.84,32.84,0,0,0,13,13.83q8.43,4.86,20,4.86a43.53,43.53,0,0,0,14-2.16,29.1,29.1,0,0,0,10.91-6.48,28.18,28.18,0,0,0,6.92-10.59l42.56,2.81a58,58,0,0,1-13.23,26.74,66.5,66.5,0,0,1-25.71,17.71Q1778.93,294.15,1758.4,294.14Z" transform="translate(0 4.03)"/><path class="cls-16" d="M2002.66,172.28l-42.13,2.6a22.16,22.16,0,0,0-4.65-9.78,25.37,25.37,0,0,0-9.34-7,32.78,32.78,0,0,0-13.77-2.65q-10.71,0-18,4.48t-7.34,11.94a12.79,12.79,0,0,0,4.75,10.05q4.75,4.11,16.31,6.59l30,6q24.19,5,36.08,16t11.88,28.95a45.32,45.32,0,0,1-9.56,28.63q-9.56,12.31-26.14,19.17t-38.19,6.86q-33,0-52.45-13.77t-22.85-37.54l45.27-2.38a23,23,0,0,0,9.94,15.29q7.88,5.24,20.2,5.24,12.09,0,19.5-4.7t7.51-12.16a12.87,12.87,0,0,0-5.3-10.31q-5.17-4-16-6.21l-28.73-5.73Q1885.34,217,1873.51,205t-11.83-30.58q0-16,8.7-27.54t24.52-17.83q15.82-6.27,37.11-6.27,31.44,0,49.53,13.29T2002.66,172.28Z" transform="translate(0 4.03)"/><path class="cls-16" d="M2173.57,172.28l-42.14,2.6a22.14,22.14,0,0,0-4.64-9.78,25.41,25.41,0,0,0-9.35-7,32.75,32.75,0,0,0-13.77-2.65q-10.7,0-18,4.48t-7.35,11.94A12.8,12.8,0,0,0,2083,181.9q4.74,4.11,16.31,6.59l30,6q24.2,5,36.08,16t11.89,28.95a45.38,45.38,0,0,1-9.56,28.63q-9.57,12.31-26.15,19.17t-38.19,6.86q-32.94,0-52.45-13.77t-22.84-37.54l45.26-2.38q2.05,10.05,9.94,15.29t20.2,5.24q12.11,0,19.5-4.7t7.51-12.16a12.86,12.86,0,0,0-5.29-10.31q-5.19-4-16-6.21l-28.74-5.73q-24.3-4.86-36.14-16.85t-11.83-30.58q0-16,8.7-27.54t24.52-17.83q15.82-6.27,37.11-6.27,31.44,0,49.54,13.29T2173.57,172.28Z" transform="translate(0 4.03)"/><g class="cls-17"><rect class="cls-18" x="336.83" width="299.54" height="367.26"/></g><g class="cls-19"><rect class="cls-20" x="340.29" y="168.53" width="253.06" height="178.8"/></g><g class="cls-21"><rect class="cls-22" x="102.4" y="4.03" width="440.4" height="341.16"/></g><g class="cls-23"><rect class="cls-24" y="4.03" width="333.58" height="363.23"/></g><g class="cls-25"><path class="cls-26" d="M43.67,209.48c-25.56-138.27,142-217.19,255.87-166A180.88,180.88,0,0,0,181.61,0C81.32,0,0,81.32,0,181.61S81.32,363.23,181.61,363.23a180.93,180.93,0,0,0,73.75-15.6c-147.52,6-199.78-73.74-211.69-138.15" transform="translate(0 4.03)"/></g><g class="cls-27"><path class="cls-28" d="M233.63,294.77c81.76-2.53,77.28-130.1,103.94-187.69C360.55,57.47,416-10.48,542.8,22.73A181.74,181.74,0,0,0,279.7,133.11c-18,65-1.94,140-98.09,140-32.53,0-63-17.31-79.21-42.88,24.14,47.12,76.89,63.59,131.23,64.5" transform="translate(0 4.03)"/></g><g class="cls-29"><path class="cls-30" d="M454.76,90.08a91.54,91.54,0,0,1,0,183.07c-61.34,0-65.95-11.81-117.93,46.57,116.29,20.22,288.53-28.19,247.82-176.33C568.88,86,510,48.83,432.35,49.69c-47.08,37.44-60.16,98.1-60.16,98.1,9.74-32.53,29.82-57.71,82.57-57.71" transform="translate(0 4.03)"/></g><g class="cls-31"><path class="cls-32" d="M464.8,51.65c33.71-27,78-28.92,78-28.92-49.13-6.91-84.82,6.59-110.45,27-47.08,37.44-60.16,98.1-60.16,98.1,8.43-28.16,24.61-50.81,63-56.39A96,96,0,0,1,464.8,51.65" transform="translate(0 4.03)"/></g><g class="cls-33"><path class="cls-34" d="M272.49,280.47c-17.69-1.85-36.86-5.49-54-12.31-10,3.22-22.11,5-36.86,5-32.53,0-63-17.31-79.21-42.88,24.14,47.12,76.89,63.59,131.23,64.5,35.08.58,70.82-5.33,99.95-13.66a334.28,334.28,0,0,1-61.09-.64" transform="translate(0 4.03)"/></g><g class="cls-35"><path class="cls-36" d="M288,34.39S258.62,19,209.26,23.32c-40.4,3.54-112,29.24-129.86,63.46,52.11-55.46,147.16-76.1,220.14-43.27q-5.6-4.78-11.58-9.12" transform="translate(0 4.03)"/></g><g class="cls-37"><path class="cls-38" d="M527.53,15.17c-30.83-5.57-61.07-6.82-91.22,2-11.37,3.32-26.49,9.17-38.89,19,32.82-20.62,79.45-30.7,145.38-13.43q-7.42-4.12-15.27-7.56" transform="translate(0 4.03)"/></g><g class="cls-39"><path class="cls-38" d="M370.12,331.53c51.11-.43,193-10.9,216-112.52C560.87,305.56,437,334.52,344,320.88c-2.42-.36-4.83-.75-7.21-1.16a182.2,182.2,0,0,0,15,11.5h0s6.92.4,18.32.3" transform="translate(0 4.03)"/></g></svg>