<svg id="Layer_2" data-name="Layer 2" xmlns="http://www.w3.org/2000/svg" xmlns:xlink="http://www.w3.org/1999/xlink" viewBox="0 0 2177.35 367.26"><defs><style>.cls-1{fill:url(#White_Black);}.cls-2{fill:url(#White_Black-2);}.cls-3{fill:url(#linear-gradient);}.cls-4{fill:url(#White_Black-3);}.cls-5{fill:url(#linear-gradient-2);}.cls-6{fill:url(#linear-gradient-3);}.cls-7{fill:url(#linear-gradient-4);}.cls-8{fill:url(#linear-gradient-5);}.cls-9{fill:url(#linear-gradient-6);}.cls-10{fill:url(#linear-gradient-7);}.cls-11{fill:url(#linear-gradient-8);}.cls-12{fill:none;clip-rule:evenodd;}.cls-13{mask:url(#mask);}.cls-14{mask:url(#mask-2);}.cls-15{mask:url(#mask-3);}.cls-16{fill:#fff;}.cls-17{clip-path:url(#clip-path);}.cls-18{fill:url(#linear-gradient-9);}.cls-19{clip-path:url(#clip-path-2);}.cls-20{fill:url(#linear-gradient-10);}.cls-21{clip-path:url(#clip-path-3);}.cls-22{fill:url(#linear-gradient-11);}.cls-23{clip-path:url(#clip-path-4);}.cls-24{fill:url(#linear-gradient-12);}.cls-25{mask:url(#mask-4);}.cls-26{fill:#f1c30f;}.cls-26,.cls-28,.cls-30,.cls-32,.cls-34,.cls-36,.cls-38{fill-rule:evenodd;}.cls-27{mask:url(#mask-5);}.cls-28{fill:#fa5c98;}.cls-29{mask:url(#mask-6);}.cls-30{fill:#3e6bbd;}.cls-31{mask:url(#mask-7);}.cls-32{fill:#004790;}.cls-33{mask:url(#mask-8);}.cls-34{fill:#5e147d;}.cls-35{mask:url(#mask-9);}.cls-36{fill:#fde3a7;}.cls-37{mask:url(#mask-10);}.cls-38{fill:#ffbcd8;}.cls-39{mask:url(#mask-11);}</style><linearGradient id="White_Black" x1="-3091.62" y1="1087.01" x2="-3242.36" y2="985.74" gradientTransform="translate(-1237.09 -348.5) rotate(-180)" gradientUnits="userSpaceOnUse"><stop offset="0" stop-color="#fff"/><stop offset="1" stop-color="#231f20"/></linearGradient><linearGradient id="White_Black-2" x1="2944.24" y1="1429.35" x2="2458.42" y2="1102.96" gradientTransform="translate(-3177.9 -3507.38) rotate(90)" xlink:href="#White_Black"/><linearGradient id="linear-gradient" x1="-1536.05" y1="1091.85" x2="-995.57" y2="814.34" gradientTransform="translate(733.54 -656.75)" gradientUnits="userSpaceOnUse"><stop offset="0" stop-color="#fff"/><stop offset="1"/></linearGradient><linearGradient id="White_Black-3" x1="3265.1" y1="300.42" x2="2779.27" y2="-25.97" gradientTransform="translate(-7226.66 -1558.39)" xlink:href="#White_Black"/><linearGradient id="linear-gradient-2" x1="-1145.94" y1="431.66" x2="-1204.06" y2="1011.38" gradientTransform="translate(380.44 -623.54)" xlink:href="#linear-gradient"/><linearGradient id="linear-gradient-3" x1="-927.3" y1="636.74" x2="-1239.27" y2="973.82" gradientTransform="translate(487.79 -695.31)" xlink:href="#linear-gradient"/><linearGradient id="linear-gradient-4" x1="-1221.57" y1="705.34" x2="-1223.62" y2="1038.28" gradientTransform="translate(733.54 -664.56)" xlink:href="#linear-gradient"/><linearGradient id="linear-gradient-5" x1="-1353.94" y1="1001.45" x2="-1117.49" y2="819.71" gradientTransform="translate(770.61 -849.38)" xlink:href="#linear-gradient"/><linearGradient id="linear-gradient-6" x1="-1289.24" y1="937.94" x2="-1088.68" y2="997.64" gradientTransform="translate(487.79 -695.27)" xlink:href="#linear-gradient"/><linearGradient id="linear-gradient-7" x1="-968.57" y1="855.26" x2="-1339.79" y2="1017.26" gradientTransform="translate(463.68 -913.34)" xlink:href="#linear-gradient"/><linearGradient id="linear-gradient-8" x1="-1107.37" y1="940.74" x2="-1355.82" y2="1011.58" gradientTransform="translate(797.06 -966.4)" xlink:href="#linear-gradient"/><mask id="mask" x="2855.39" y="-1397.08" width="168.2" height="109.01" maskUnits="userSpaceOnUse"><g transform="translate(952.72 4.03)"><rect class="cls-1" x="1907.64" y="-1391.65" width="158.25" height="90.1" transform="translate(182.2 235.84) rotate(-7.12)"/></g></mask><mask id="mask-2" x="-3544.08" y="-1256.2" width="351.34" height="542.08" maskUnits="userSpaceOnUse"><g transform="translate(952.72 4.03)"><rect class="cls-2" x="-4466.32" y="-1244.2" width="290.37" height="510.03" transform="translate(89.28 -543.15) rotate(-7.12)"/></g></mask><mask id="mask-3" x="-3705.89" y="-1715.73" width="542.08" height="351.34" maskUnits="userSpaceOnUse"><g transform="translate(952.72 4.03)"><rect class="cls-4" x="-4642.58" y="-1689.28" width="510.03" height="290.37" transform="translate(157.54 -555.66) rotate(-7.12)"/></g></mask><clipPath id="clip-path" transform="translate(952.72 4.03)"><path class="cls-12" d="M-498,90.08a91.53,91.53,0,0,1,91.54,91.53A91.54,91.54,0,0,1-498,273.15c-61.34,0-65.95-11.81-117.93,46.57A180.92,180.92,0,0,0-498,363.23c100.3,0,181.62-81.32,181.62-181.62A181.57,181.57,0,0,0-409.92,22.73C-579.16-4-599.26,143.3-580.53,147.79c9.75-32.53,29.82-57.71,82.57-57.71"/></clipPath><linearGradient id="linear-gradient-9" x1="405.82" y1="8.41" x2="573.35" y2="371.77" gradientUnits="userSpaceOnUse"><stop offset="0" stop-color="#0070ad"/><stop offset="1" stop-color="#fa5ced"/></linearGradient><clipPath id="clip-path-2" transform="translate(952.72 4.03)"><path class="cls-12" d="M-408,164.5a91.82,91.82,0,0,1,1.61,17.11A91.54,91.54,0,0,1-498,273.15c-59.94,0-65.72-11.26-114.47,42.71l11.5,15.36h0c.21,0,206.25,12.06,234.34-112.22,7.21-31.92-10.77-48.08-41.45-54.51"/></clipPath><linearGradient id="linear-gradient-10" x1="361.26" y1="28.96" x2="528.78" y2="392.32" xlink:href="#linear-gradient-9"/><clipPath id="clip-path-3" transform="translate(952.72 4.03)"><path class="cls-12" d="M-673,133.11c-18,65-1.93,140-98.08,140-32.54,0-63-17.31-79.22-42.88,16.37,47.79,72.45,110.89,231.18,50.84a181.77,181.77,0,0,0,27.57-71.9c3.14-20.6,5.3-42.28,11-61.42,0,0,31.2-144.66,170.61-125.06A180.8,180.8,0,0,0-498,0a181,181,0,0,0-126,50.83A181.41,181.41,0,0,0-673,133.11"/></clipPath><linearGradient id="linear-gradient-11" x1="477.57" y1="-40.66" x2="238.51" y2="291.41" gradientUnits="userSpaceOnUse"><stop offset="0" stop-color="#fa5c98"/><stop offset="1" stop-color="#8e44ad"/></linearGradient><clipPath id="clip-path-4" transform="translate(952.72 4.03)"><path class="cls-12" d="M-619.14,281.11c-82.59,23.63-218.34,27.73-241.47-80.23a92,92,0,0,1-2-19.27A91.53,91.53,0,0,1-771.1,90.08c66.27,0,45.12,35.19,117.93-46.57A180.92,180.92,0,0,0-771.1,0C-871.4,0-952.72,81.32-952.72,181.61S-871.4,363.23-771.1,363.23a181.17,181.17,0,0,0,134.75-59.87,182.46,182.46,0,0,0,17.21-22.25"/></clipPath><linearGradient id="linear-gradient-12" x1="211.81" y1="3.38" x2="121.72" y2="368.07" gradientUnits="userSpaceOnUse"><stop offset="0" stop-color="#f1c40f"/><stop offset="1" stop-color="#da3c78"/></linearGradient><mask id="mask-4" x="0" y="4.03" width="299.54" height="363.23" maskUnits="userSpaceOnUse"><g transform="translate(952.72 4.03)"><rect class="cls-5" x="-952.72" width="299.54" height="363.23"/></g></mask><mask id="mask-5" x="102.4" y="4.03" width="440.4" height="294.77" maskUnits="userSpaceOnUse"><g transform="translate(952.72 4.03)"><rect class="cls-6" x="-850.32" width="440.4" height="294.77"/></g></mask><mask id="mask-6" x="336.83" y="53.7" width="253.92" height="274.42" maskUnits="userSpaceOnUse"><g transform="translate(952.72 4.03)"><rect class="cls-7" x="-615.89" y="49.68" width="253.92" height="274.42"/></g></mask><mask id="mask-7" x="372.19" y="24.93" width="170.61" height="126.89" maskUnits="userSpaceOnUse"><g transform="translate(952.72 4.03)"><rect class="cls-8" x="-580.53" y="20.9" width="170.61" height="126.89"/></g></mask><mask id="mask-8" x="102.4" y="234.29" width="231.18" height="64.54" maskUnits="userSpaceOnUse"><g transform="translate(952.72 4.03)"><rect class="cls-9" x="-850.32" y="230.27" width="231.18" height="64.54"/></g></mask><mask id="mask-9" x="79.4" y="26.58" width="220.15" height="64.23" maskUnits="userSpaceOnUse"><g transform="translate(952.72 4.03)"><rect class="cls-10" x="-873.32" y="22.55" width="220.15" height="64.23"/></g></mask><mask id="mask-10" x="397.42" y="14.79" width="145.38" height="25.4" maskUnits="userSpaceOnUse"><g transform="translate(952.72 4.03)"><rect class="cls-11" x="-555.3" y="10.77" width="145.38" height="25.4"/></g></mask><mask id="mask-11" x="336.83" y="223.04" width="249.31" height="112.54" maskUnits="userSpaceOnUse"><g transform="translate(952.72 4.03)"><rect class="cls-3" x="-615.89" y="219.01" width="249.31" height="112.54"/></g></mask></defs><path class="cls-16" d="M46,69.65V290.9H0V69.65Z" transform="translate(952.72 4.03)"/><path class="cls-16" d="M105.87,103.57a24.83,24.83,0,0,1-17.56-6.8,22.14,22.14,0,0,1,.06-32.9,25.88,25.88,0,0,1,35.05,0,22.17,22.17,0,0,1,0,32.89A24.67,24.67,0,0,1,105.87,103.57ZM82.75,290.9V125h46V290.9Z" transform="translate(952.72 4.03)"/><path class="cls-16" d="M165.5,290.9V125h43.86v29.27h1.94a46.06,46.06,0,0,1,17.29-23q12.1-8.43,29-8.43,17.07,0,29.06,8.48a40.42,40.42,0,0,1,16,23h1.73a44.38,44.38,0,0,1,18.42-22.85q13.33-8.58,31.6-8.59,23.22,0,37.76,14.75t14.53,41.76V290.9H360.71V188.38q0-13.83-7.34-20.74T335,160.72q-12.53,0-19.55,7.94t-7,20.91V290.9H263.81V187.41q0-12.21-7-19.45t-18.31-7.24a25.33,25.33,0,0,0-13.78,3.84,27.08,27.08,0,0,0-9.66,10.69,34.34,34.34,0,0,0-3.57,16.05v99.6Z" transform="translate(952.72 4.03)"/><path class="cls-16" d="M466,103.57a24.79,24.79,0,0,1-17.55-6.8,22.15,22.15,0,0,1,.05-32.9,25.9,25.9,0,0,1,35.06,0,22.19,22.19,0,0,1,0,32.89A24.69,24.69,0,0,1,466,103.57ZM442.92,290.9V125h46V290.9Z" transform="translate(952.72 4.03)"/><path class="cls-16" d="M613.93,125v34.57H514V125ZM536.69,85.21h46v154.7q0,6.38,1.95,9.89a10.57,10.57,0,0,0,5.45,4.91,21.79,21.79,0,0,0,8.16,1.41,35.52,35.52,0,0,0,6.48-.6l5-.92L617,288.85q-3.47,1.08-9.72,2.54A81.89,81.89,0,0,1,592,293.17q-16.63.65-29.11-4.43A40.64,40.64,0,0,1,543.5,273q-6.91-10.7-6.81-27Z" transform="translate(952.72 4.03)"/><path class="cls-16" d="M693.33,69.65V290.9h-46V69.65Z" transform="translate(952.72 4.03)"/><path class="cls-16" d="M805.68,294.14q-25.6,0-44-10.42a70.56,70.56,0,0,1-28.36-29.6q-9.94-19.19-9.94-45.43,0-25.6,9.94-44.94a73.35,73.35,0,0,1,28-30.14q18.09-10.8,42.51-10.81A87.88,87.88,0,0,1,834.47,128a69.19,69.19,0,0,1,24.85,15.72,71.69,71.69,0,0,1,16.58,26.31q5.94,15.83,5.94,37v12.64H741.73V191.19h96.79a35.25,35.25,0,0,0-4.32-17.61,31.53,31.53,0,0,0-11.93-12.05,34.92,34.92,0,0,0-17.67-4.37A35.42,35.42,0,0,0,786.07,162a34.46,34.46,0,0,0-12.58,12.85,36.57,36.57,0,0,0-4.65,17.88v27.12q0,12.31,4.59,21.28a33,33,0,0,0,13,13.83q8.43,4.86,20,4.86a43.53,43.53,0,0,0,14-2.16,29.1,29.1,0,0,0,10.91-6.48,28.18,28.18,0,0,0,6.92-10.59l42.56,2.81a58,58,0,0,1-13.23,26.74,66.5,66.5,0,0,1-25.71,17.71Q826.21,294.15,805.68,294.14Z" transform="translate(952.72 4.03)"/><path class="cls-16" d="M1049.94,172.28l-42.13,2.6a22.25,22.25,0,0,0-4.64-9.78,25.49,25.49,0,0,0-9.35-7,32.75,32.75,0,0,0-13.77-2.65q-10.69,0-18,4.48t-7.34,11.94a12.79,12.79,0,0,0,4.75,10.05q4.76,4.11,16.32,6.59l30,6q24.19,5,36.08,16t11.88,28.95a45.32,45.32,0,0,1-9.56,28.63q-9.56,12.31-26.14,19.17t-38.19,6.86q-33,0-52.45-13.77t-22.85-37.54l45.27-2.38q2.06,10.05,9.94,15.29t20.2,5.24q12.09,0,19.5-4.7t7.51-12.16a12.87,12.87,0,0,0-5.3-10.31q-5.17-4-16-6.21l-28.73-5.73Q932.62,217,920.79,205T909,174.44q0-16,8.7-27.54t24.52-17.83q15.83-6.27,37.11-6.27,31.44,0,49.53,13.29T1049.94,172.28Z" transform="translate(952.72 4.03)"/><path class="cls-16" d="M1220.85,172.28l-42.14,2.6a22.14,22.14,0,0,0-4.64-9.78,25.41,25.41,0,0,0-9.35-7,32.75,32.75,0,0,0-13.77-2.65q-10.7,0-18,4.48t-7.35,11.94a12.8,12.8,0,0,0,4.76,10.05q4.76,4.11,16.31,6.59l30,6q24.21,5,36.09,16t11.88,28.95a45.38,45.38,0,0,1-9.56,28.63q-9.57,12.31-26.15,19.17t-38.19,6.86q-32.94,0-52.44-13.77t-22.85-37.54l45.26-2.38q2.05,10.05,9.94,15.29t20.2,5.24q12.11,0,19.5-4.7t7.51-12.16a12.86,12.86,0,0,0-5.29-10.31q-5.19-4-16-6.21l-28.74-5.73Q1103.53,217,1091.7,205t-11.83-30.58q0-16,8.69-27.54t24.53-17.83q15.83-6.27,37.1-6.27,31.44,0,49.54,13.29T1220.85,172.28Z" transform="translate(952.72 4.03)"/><g class="cls-17"><rect class="cls-18" x="336.83" width="299.54" height="367.26"/></g><g class="cls-19"><rect class="cls-20" x="340.29" y="168.53" width="253.06" height="178.8"/></g><g class="cls-21"><rect class="cls-22" x="102.4" y="4.03" width="440.4" height="341.16"/></g><g class="cls-23"><rect class="cls-24" y="4.03" width="333.58" height="363.23"/></g><g class="cls-25"><path class="cls-26" d="M-909,209.48C-934.6,71.21-767-7.71-653.17,43.51A180.92,180.92,0,0,0-771.1,0C-871.4,0-952.72,81.32-952.72,181.61S-871.4,363.23-771.1,363.23a180.91,180.91,0,0,0,73.74-15.6c-147.52,6-199.78-73.74-211.69-138.15" transform="translate(952.72 4.03)"/></g><g class="cls-27"><path class="cls-28" d="M-719.09,294.77c81.76-2.53,77.28-130.1,104-187.69,23-49.61,78.42-117.56,205.22-84.35A180.8,180.8,0,0,0-498,0a181,181,0,0,0-126,50.83A181.41,181.41,0,0,0-673,133.11c-18,65-1.93,140-98.08,140-32.54,0-63-17.31-79.22-42.88,24.14,47.12,76.89,63.59,131.23,64.5" transform="translate(952.72 4.03)"/></g><g class="cls-29"><path class="cls-30" d="M-498,90.08a91.53,91.53,0,0,1,91.54,91.53A91.54,91.54,0,0,1-498,273.15c-61.34,0-65.95-11.81-117.93,46.57,116.29,20.22,288.53-28.19,247.82-176.33C-383.84,86-442.73,48.83-520.36,49.69c-47.09,37.44-60.17,98.1-60.17,98.1,9.75-32.53,29.82-57.71,82.57-57.71" transform="translate(952.72 4.03)"/></g><g class="cls-31"><path class="cls-32" d="M-487.92,51.65c33.71-27,78-28.92,78-28.92-49.13-6.91-84.82,6.59-110.44,27-47.09,37.44-60.17,98.1-60.17,98.1,8.43-28.16,24.61-50.81,63-56.39a96,96,0,0,1,29.59-39.75" transform="translate(952.72 4.03)"/></g><g class="cls-33"><path class="cls-34" d="M-680.23,280.47c-17.69-1.85-36.86-5.49-54-12.31-10,3.22-22.11,5-36.85,5-32.54,0-63-17.31-79.22-42.88,24.14,47.12,76.89,63.59,131.23,64.5,35.08.58,70.82-5.33,100-13.66a334.28,334.28,0,0,1-61.09-.64" transform="translate(952.72 4.03)"/></g><g class="cls-35"><path class="cls-36" d="M-664.76,34.39S-694.1,19-743.46,23.32c-40.4,3.54-112,29.24-129.86,63.46,52.11-55.46,147.16-76.1,220.15-43.27q-5.61-4.78-11.59-9.12" transform="translate(952.72 4.03)"/></g><g class="cls-37"><path class="cls-38" d="M-425.19,15.17c-30.83-5.57-61.07-6.82-91.22,2-11.37,3.32-26.49,9.17-38.89,19,32.82-20.62,79.46-30.7,145.38-13.43q-7.43-4.12-15.27-7.56" transform="translate(952.72 4.03)"/></g><g class="cls-39"><path class="cls-38" d="M-582.6,331.53c51.11-.43,193.05-10.9,216-112.52-25.26,86.55-149.19,115.51-242.09,101.87q-3.65-.54-7.22-1.16a182.2,182.2,0,0,0,15,11.5h0s6.92.4,18.32.3" transform="translate(952.72 4.03)"/></g></svg>