<svg id="Layer_2" data-name="Layer 2" xmlns="http://www.w3.org/2000/svg" xmlns:xlink="http://www.w3.org/1999/xlink" viewBox="0 0 1313.65 237.13"><defs><style>.cls-1{fill:url(#White_Black);}.cls-2{fill:url(#White_Black-2);}.cls-3{fill:url(#White_Black-3);}.cls-4{mask:url(#mask);}.cls-5{mask:url(#mask-2);}.cls-6{mask:url(#mask-3);}.cls-7{fill:#fff;}</style><linearGradient id="White_Black" x1="-3091.62" y1="1087.01" x2="-3242.36" y2="985.74" gradientTransform="translate(-1237.09 -348.5) rotate(-180)" gradientUnits="userSpaceOnUse"><stop offset="0" stop-color="#fff"/><stop offset="1" stop-color="#231f20"/></linearGradient><linearGradient id="White_Black-2" x1="2944.24" y1="1429.35" x2="2458.42" y2="1102.96" gradientTransform="translate(-3177.9 -3507.38) rotate(90)" xlink:href="#White_Black"/><linearGradient id="White_Black-3" x1="3265.1" y1="300.42" x2="2779.27" y2="-25.97" gradientTransform="translate(-7226.66 -1558.39)" xlink:href="#White_Black"/><mask id="mask" x="1901.8" y="-1460.12" width="168.2" height="109.01" maskUnits="userSpaceOnUse"><g transform="translate(-0.87 -59.01)"><rect class="cls-1" x="1907.64" y="-1391.65" width="158.25" height="90.1" transform="translate(182.2 235.84) rotate(-7.12)"/></g></mask><mask id="mask-2" x="-4497.67" y="-1319.24" width="351.34" height="542.08" maskUnits="userSpaceOnUse"><g transform="translate(-0.87 -59.01)"><rect class="cls-2" x="-4466.32" y="-1244.2" width="290.37" height="510.03" transform="translate(89.28 -543.15) rotate(-7.12)"/></g></mask><mask id="mask-3" x="-4659.48" y="-1778.77" width="542.08" height="351.34" maskUnits="userSpaceOnUse"><g transform="translate(-0.87 -59.01)"><rect class="cls-3" x="-4642.58" y="-1689.28" width="510.03" height="290.37" transform="translate(157.54 -555.66) rotate(-7.12)"/></g></mask></defs><path class="cls-7" d="M.87,292.9V71.65H47.64V254.33H142.5V292.9Z" transform="translate(-0.87 -59.01)"/><path class="cls-7" d="M195.75,105.57a24.79,24.79,0,0,1-17.55-6.8,22.15,22.15,0,0,1,.05-32.9,25.9,25.9,0,0,1,35.06-.05,22.19,22.19,0,0,1,0,32.89A24.69,24.69,0,0,1,195.75,105.57ZM172.63,292.9V127h46V292.9Z" transform="translate(-0.87 -59.01)"/><path class="cls-7" d="M255.38,292.9V127h43.86v29.27h1.95a46,46,0,0,1,17.28-23q12.11-8.43,29-8.43,17.06,0,29.06,8.48a40.45,40.45,0,0,1,16,23h1.73a44.43,44.43,0,0,1,18.42-22.85q13.35-8.58,31.6-8.59,23.23,0,37.76,14.75t14.53,41.76V292.9H450.6V190.38q0-13.83-7.35-20.74t-18.37-6.92q-12.53,0-19.55,7.94t-7,20.91V292.9H353.69V189.41q0-12.21-7-19.45t-18.31-7.24a25.32,25.32,0,0,0-13.77,3.84A27.1,27.1,0,0,0,305,177.25a34.34,34.34,0,0,0-3.57,16.05v99.6Z" transform="translate(-0.87 -59.01)"/><path class="cls-7" d="M555.93,105.57a24.79,24.79,0,0,1-17.56-6.8,22.15,22.15,0,0,1,0-32.9,25.9,25.9,0,0,1,35.06-.05,22.19,22.19,0,0,1,0,32.89A24.67,24.67,0,0,1,555.93,105.57ZM532.81,292.9V127h46V292.9Z" transform="translate(-0.87 -59.01)"/><path class="cls-7" d="M703.82,127v34.57H603.89V127ZM626.58,87.21h46v154.7q0,6.38,1.94,9.89a10.63,10.63,0,0,0,5.46,4.91,21.77,21.77,0,0,0,8.15,1.41,35.71,35.71,0,0,0,6.49-.6c2.16-.39,3.81-.7,5-.92l7.24,34.25q-3.45,1.08-9.72,2.54a81.78,81.78,0,0,1-15.23,1.78q-16.64.65-29.12-4.43A40.64,40.64,0,0,1,633.38,275q-6.92-10.7-6.8-27Z" transform="translate(-0.87 -59.01)"/><path class="cls-7" d="M783.22,71.65V292.9h-46V71.65Z" transform="translate(-0.87 -59.01)"/><path class="cls-7" d="M895.57,296.14q-25.61,0-44-10.42a70.56,70.56,0,0,1-28.36-29.6q-9.93-19.19-9.93-45.43,0-25.6,9.93-44.94a73.35,73.35,0,0,1,28-30.14q18.09-10.8,42.51-10.81A87.9,87.9,0,0,1,924.36,130a69.15,69.15,0,0,1,24.84,15.72,71.58,71.58,0,0,1,16.59,26.31q5.94,15.83,5.94,37v12.64H831.61V193.19h96.8a35.25,35.25,0,0,0-4.32-17.61,31.48,31.48,0,0,0-11.94-12.05,34.91,34.91,0,0,0-17.66-4.37A35.37,35.37,0,0,0,876,164a34.49,34.49,0,0,0-12.59,12.85,36.67,36.67,0,0,0-4.64,17.88v27.12q0,12.31,4.59,21.28a32.84,32.84,0,0,0,13,13.83q8.42,4.86,20,4.86a43.55,43.55,0,0,0,14-2.16,29.18,29.18,0,0,0,10.91-6.48,28.16,28.16,0,0,0,6.91-10.59l42.57,2.81a58,58,0,0,1-13.24,26.74,66.5,66.5,0,0,1-25.71,17.71Q916.09,296.15,895.57,296.14Z" transform="translate(-0.87 -59.01)"/><path class="cls-7" d="M1139.83,174.28l-42.14,2.6a22.25,22.25,0,0,0-4.64-9.78,25.41,25.41,0,0,0-9.35-7,32.75,32.75,0,0,0-13.77-2.65q-10.7,0-18,4.48t-7.35,11.94a12.8,12.8,0,0,0,4.76,10.05q4.74,4.11,16.31,6.59l30,6q24.19,5,36.08,16t11.89,28.95a45.38,45.38,0,0,1-9.56,28.63q-9.57,12.31-26.15,19.17t-38.19,6.86q-32.94,0-52.45-13.77t-22.84-37.54l45.26-2.38q2.05,10.05,9.94,15.29t20.2,5.24q12.11,0,19.5-4.7t7.51-12.16a12.86,12.86,0,0,0-5.29-10.31q-5.19-4-16-6.21l-28.74-5.73q-24.3-4.86-36.14-16.85t-11.83-30.58q0-16,8.7-27.54t24.52-17.83q15.82-6.27,37.11-6.27,31.44,0,49.54,13.29T1139.83,174.28Z" transform="translate(-0.87 -59.01)"/><path class="cls-7" d="M1310.73,174.28l-42.13,2.6a22.16,22.16,0,0,0-4.65-9.78,25.37,25.37,0,0,0-9.34-7,32.81,32.81,0,0,0-13.77-2.65q-10.71,0-18,4.48t-7.34,11.94a12.79,12.79,0,0,0,4.75,10.05q4.75,4.11,16.31,6.59l30,6q24.2,5,36.08,16t11.88,28.95a45.32,45.32,0,0,1-9.56,28.63q-9.56,12.31-26.14,19.17t-38.19,6.86q-33,0-52.45-13.77t-22.85-37.54l45.27-2.38a23,23,0,0,0,9.93,15.29q7.89,5.24,20.21,5.24,12.09,0,19.5-4.7t7.5-12.16a12.83,12.83,0,0,0-5.29-10.31q-5.19-4-16-6.21l-28.73-5.73Q1193.41,219,1181.58,207t-11.83-30.58q0-16,8.7-27.54T1203,131.07q15.83-6.27,37.11-6.27,31.44,0,49.53,13.29T1310.73,174.28Z" transform="translate(-0.87 -59.01)"/></svg>