<svg id="Layer_2" data-name="Layer 2" xmlns="http://www.w3.org/2000/svg" xmlns:xlink="http://www.w3.org/1999/xlink" viewBox="0 0 636.38 367.26"><defs><style>.cls-1{fill:url(#White_Black);}.cls-2{fill:url(#White_Black-2);}.cls-3{fill:url(#linear-gradient);}.cls-4{fill:url(#White_Black-3);}.cls-5{fill:url(#linear-gradient-2);}.cls-6{fill:url(#linear-gradient-3);}.cls-7{fill:url(#linear-gradient-4);}.cls-8{fill:url(#linear-gradient-5);}.cls-9{fill:url(#linear-gradient-6);}.cls-10{fill:url(#linear-gradient-7);}.cls-11{fill:url(#linear-gradient-8);}.cls-12{fill:none;clip-rule:evenodd;}.cls-13{mask:url(#mask);}.cls-14{mask:url(#mask-2);}.cls-15{mask:url(#mask-3);}.cls-16{clip-path:url(#clip-path);}.cls-17{fill:url(#linear-gradient-9);}.cls-18{clip-path:url(#clip-path-2);}.cls-19{fill:url(#linear-gradient-10);}.cls-20{clip-path:url(#clip-path-3);}.cls-21{fill:url(#linear-gradient-11);}.cls-22{clip-path:url(#clip-path-4);}.cls-23{fill:url(#linear-gradient-12);}.cls-24{mask:url(#mask-4);}.cls-25{fill:#f1c30f;}.cls-25,.cls-27,.cls-29,.cls-31,.cls-33,.cls-35,.cls-37{fill-rule:evenodd;}.cls-26{mask:url(#mask-5);}.cls-27{fill:#fa5c98;}.cls-28{mask:url(#mask-6);}.cls-29{fill:#3e6bbd;}.cls-30{mask:url(#mask-7);}.cls-31{fill:#004790;}.cls-32{mask:url(#mask-8);}.cls-33{fill:#5e147d;}.cls-34{mask:url(#mask-9);}.cls-35{fill:#fde3a7;}.cls-36{mask:url(#mask-10);}.cls-37{fill:#ffbcd8;}.cls-38{mask:url(#mask-11);}</style><linearGradient id="White_Black" x1="-2138.9" y1="1087.01" x2="-2289.64" y2="985.74" gradientTransform="translate(668.36 -348.47) rotate(-180)" gradientUnits="userSpaceOnUse"><stop offset="0" stop-color="#fff"/><stop offset="1" stop-color="#231f20"/></linearGradient><linearGradient id="White_Black-2" x1="3896.96" y1="1429.35" x2="3411.13" y2="1102.96" gradientTransform="translate(-2225.15 -4460.11) rotate(90)" xlink:href="#White_Black"/><linearGradient id="linear-gradient" x1="-583.33" y1="1091.85" x2="-42.85" y2="814.34" gradientTransform="translate(733.54 -656.75)" gradientUnits="userSpaceOnUse"><stop offset="0" stop-color="#fff"/><stop offset="1"/></linearGradient><linearGradient id="White_Black-3" x1="4217.82" y1="300.42" x2="3731.99" y2="-25.97" gradientTransform="translate(-7226.66 -1558.42)" xlink:href="#White_Black"/><linearGradient id="linear-gradient-2" x1="-193.22" y1="431.66" x2="-251.35" y2="1011.38" gradientTransform="translate(380.44 -623.54)" xlink:href="#linear-gradient"/><linearGradient id="linear-gradient-3" x1="25.42" y1="636.74" x2="-286.55" y2="973.82" gradientTransform="translate(487.79 -695.31)" xlink:href="#linear-gradient"/><linearGradient id="linear-gradient-4" x1="-268.86" y1="705.34" x2="-270.91" y2="1038.28" gradientTransform="translate(733.54 -664.56)" xlink:href="#linear-gradient"/><linearGradient id="linear-gradient-5" x1="-401.22" y1="1001.45" x2="-164.78" y2="819.71" gradientTransform="translate(770.61 -849.38)" xlink:href="#linear-gradient"/><linearGradient id="linear-gradient-6" x1="-336.52" y1="937.94" x2="-135.96" y2="997.64" gradientTransform="translate(487.79 -695.27)" xlink:href="#linear-gradient"/><linearGradient id="linear-gradient-7" x1="-15.85" y1="855.26" x2="-387.07" y2="1017.26" gradientTransform="translate(463.68 -913.34)" xlink:href="#linear-gradient"/><linearGradient id="linear-gradient-8" x1="-154.65" y1="940.74" x2="-403.1" y2="1011.58" gradientTransform="translate(797.06 -966.4)" xlink:href="#linear-gradient"/><mask id="mask" x="2855.39" y="-1397.08" width="168.2" height="109.01" maskUnits="userSpaceOnUse"><g transform="translate(0 4.03)"><rect class="cls-1" x="2860.36" y="-1391.65" width="158.25" height="90.1" transform="translate(189.55 353.92) rotate(-7.12)"/></g></mask><mask id="mask-2" x="-3544.08" y="-1256.2" width="351.34" height="542.08" maskUnits="userSpaceOnUse"><g transform="translate(0 4.03)"><rect class="cls-2" x="-3513.6" y="-1244.2" width="290.37" height="510.03" transform="translate(96.62 -425.08) rotate(-7.12)"/></g></mask><mask id="mask-3" x="-3705.89" y="-1715.73" width="542.08" height="351.34" maskUnits="userSpaceOnUse"><g transform="translate(0 4.03)"><rect class="cls-4" x="-3689.86" y="-1689.28" width="510.03" height="290.37" transform="translate(164.88 -437.59) rotate(-7.12)"/></g></mask><clipPath id="clip-path" transform="translate(0 4.03)"><path class="cls-12" d="M454.76,90.08a91.54,91.54,0,0,1,0,183.07c-61.34,0-65.95-11.81-117.93,46.57a180.9,180.9,0,0,0,117.93,43.51c100.3,0,181.62-81.32,181.62-181.62A181.57,181.57,0,0,0,542.8,22.73C373.56-4,353.46,143.3,372.19,147.79c9.74-32.53,29.82-57.71,82.57-57.71"/></clipPath><linearGradient id="linear-gradient-9" x1="405.82" y1="8.41" x2="573.35" y2="371.77" gradientUnits="userSpaceOnUse"><stop offset="0" stop-color="#0070ad"/><stop offset="1" stop-color="#fa5ced"/></linearGradient><clipPath id="clip-path-2" transform="translate(0 4.03)"><path class="cls-12" d="M544.69,164.5a91.6,91.6,0,0,1-89.93,108.65c-59.94,0-65.72-11.26-114.47,42.71l11.5,15.36h0c.21,0,206.25,12.06,234.34-112.22,7.21-31.92-10.78-48.08-41.45-54.51"/></clipPath><linearGradient id="linear-gradient-10" x1="361.26" y1="28.96" x2="528.78" y2="392.32" xlink:href="#linear-gradient-9"/><clipPath id="clip-path-3" transform="translate(0 4.03)"><path class="cls-12" d="M279.7,133.11c-18,65-1.94,140-98.09,140-32.53,0-63-17.31-79.21-42.88,16.37,47.79,72.45,110.89,231.18,50.84a181.75,181.75,0,0,0,27.56-71.9c3.15-20.6,5.31-42.28,11.05-61.42,0,0,31.2-144.66,170.61-125.06A181.74,181.74,0,0,0,279.7,133.11"/></clipPath><linearGradient id="linear-gradient-11" x1="477.57" y1="-40.66" x2="238.51" y2="291.41" gradientUnits="userSpaceOnUse"><stop offset="0" stop-color="#fa5c98"/><stop offset="1" stop-color="#8e44ad"/></linearGradient><clipPath id="clip-path-4" transform="translate(0 4.03)"><path class="cls-12" d="M333.58,281.11C251,304.74,115.23,308.84,92.11,200.88a91.62,91.62,0,0,1,89.5-110.8c66.28,0,45.13,35.19,117.93-46.57A180.88,180.88,0,0,0,181.61,0C81.32,0,0,81.32,0,181.61S81.32,363.23,181.61,363.23a182,182,0,0,0,152-82.12"/></clipPath><linearGradient id="linear-gradient-12" x1="211.81" y1="3.38" x2="121.72" y2="368.07" gradientUnits="userSpaceOnUse"><stop offset="0" stop-color="#f1c40f"/><stop offset="1" stop-color="#da3c78"/></linearGradient><mask id="mask-4" x="0" y="4.03" width="299.54" height="363.23" maskUnits="userSpaceOnUse"><g transform="translate(0 4.03)"><rect class="cls-5" width="299.54" height="363.23"/></g></mask><mask id="mask-5" x="102.4" y="4.03" width="440.4" height="294.77" maskUnits="userSpaceOnUse"><g transform="translate(0 4.03)"><rect class="cls-6" x="102.4" width="440.4" height="294.77"/></g></mask><mask id="mask-6" x="336.83" y="53.7" width="253.92" height="274.42" maskUnits="userSpaceOnUse"><g transform="translate(0 4.03)"><rect class="cls-7" x="336.83" y="49.68" width="253.92" height="274.42"/></g></mask><mask id="mask-7" x="372.19" y="24.93" width="170.61" height="126.89" maskUnits="userSpaceOnUse"><g transform="translate(0 4.03)"><rect class="cls-8" x="372.19" y="20.9" width="170.61" height="126.89"/></g></mask><mask id="mask-8" x="102.4" y="234.29" width="231.18" height="64.54" maskUnits="userSpaceOnUse"><g transform="translate(0 4.03)"><rect class="cls-9" x="102.4" y="230.27" width="231.18" height="64.54"/></g></mask><mask id="mask-9" x="79.4" y="26.58" width="220.15" height="64.23" maskUnits="userSpaceOnUse"><g transform="translate(0 4.03)"><rect class="cls-10" x="79.4" y="22.55" width="220.15" height="64.23"/></g></mask><mask id="mask-10" x="397.42" y="14.79" width="145.38" height="25.4" maskUnits="userSpaceOnUse"><g transform="translate(0 4.03)"><rect class="cls-11" x="397.42" y="10.77" width="145.38" height="25.4"/></g></mask><mask id="mask-11" x="336.83" y="223.04" width="249.31" height="112.54" maskUnits="userSpaceOnUse"><g transform="translate(0 4.03)"><rect class="cls-3" x="336.83" y="219.01" width="249.31" height="112.54"/></g></mask></defs><g class="cls-16"><rect class="cls-17" x="336.83" width="299.54" height="367.26"/></g><g class="cls-18"><rect class="cls-19" x="340.29" y="168.53" width="253.06" height="178.8"/></g><g class="cls-20"><rect class="cls-21" x="102.4" y="4.03" width="440.4" height="341.16"/></g><g class="cls-22"><rect class="cls-23" y="4.03" width="333.58" height="363.23"/></g><g class="cls-24"><path class="cls-25" d="M43.67,209.48c-25.56-138.27,142-217.19,255.87-166A180.88,180.88,0,0,0,181.61,0C81.32,0,0,81.32,0,181.61S81.32,363.23,181.61,363.23a180.93,180.93,0,0,0,73.75-15.6c-147.52,6-199.78-73.74-211.69-138.15" transform="translate(0 4.03)"/></g><g class="cls-26"><path class="cls-27" d="M233.63,294.77c81.76-2.53,77.28-130.1,103.94-187.69C360.55,57.47,416-10.48,542.8,22.73A181.74,181.74,0,0,0,279.7,133.11c-18,65-1.94,140-98.09,140-32.53,0-63-17.31-79.21-42.88,24.14,47.12,76.89,63.59,131.23,64.5" transform="translate(0 4.03)"/></g><g class="cls-28"><path class="cls-29" d="M454.76,90.08a91.54,91.54,0,0,1,0,183.07c-61.34,0-65.95-11.81-117.93,46.57,116.29,20.22,288.53-28.19,247.82-176.33C568.88,86,510,48.83,432.35,49.69c-47.08,37.44-60.16,98.1-60.16,98.1,9.74-32.53,29.82-57.71,82.57-57.71" transform="translate(0 4.03)"/></g><g class="cls-30"><path class="cls-31" d="M464.8,51.65c33.71-27,78-28.92,78-28.92-49.13-6.91-84.82,6.59-110.45,27-47.08,37.44-60.16,98.1-60.16,98.1,8.43-28.16,24.61-50.81,63-56.39A96,96,0,0,1,464.8,51.65" transform="translate(0 4.03)"/></g><g class="cls-32"><path class="cls-33" d="M272.49,280.47c-17.69-1.85-36.86-5.49-54-12.31-10,3.22-22.11,5-36.86,5-32.53,0-63-17.31-79.21-42.88,24.14,47.12,76.89,63.59,131.23,64.5,35.08.58,70.82-5.33,99.95-13.66a334.28,334.28,0,0,1-61.09-.64" transform="translate(0 4.03)"/></g><g class="cls-34"><path class="cls-35" d="M288,34.39S258.62,19,209.26,23.32c-40.4,3.54-112,29.24-129.86,63.46,52.11-55.46,147.16-76.1,220.14-43.27q-5.6-4.78-11.58-9.12" transform="translate(0 4.03)"/></g><g class="cls-36"><path class="cls-37" d="M527.53,15.17c-30.83-5.57-61.07-6.82-91.22,2-11.37,3.32-26.49,9.17-38.89,19,32.82-20.62,79.45-30.7,145.38-13.43q-7.42-4.12-15.27-7.56" transform="translate(0 4.03)"/></g><g class="cls-38"><path class="cls-37" d="M370.12,331.53c51.11-.43,193-10.9,216-112.52C560.87,305.56,437,334.52,344,320.88c-2.42-.36-4.83-.75-7.21-1.16a182.2,182.2,0,0,0,15,11.5h0s6.92.4,18.32.3" transform="translate(0 4.03)"/></g></svg>