<svg id="Layer_1" data-name="Layer 1" xmlns="http://www.w3.org/2000/svg" xmlns:xlink="http://www.w3.org/1999/xlink" viewBox="0 0 105.43 105.43"><defs><style>.cls-1{fill:url(#linear-gradient);}.cls-2{fill:url(#linear-gradient-2);}.cls-3{fill:url(#linear-gradient-3);}.cls-4{fill:url(#linear-gradient-4);}</style><linearGradient id="linear-gradient" x1="-359.82" y1="707.52" x2="-277.58" y2="707.52" gradientTransform="translate(758.56 -202.42) rotate(45)" gradientUnits="userSpaceOnUse"><stop offset="0" stop-color="#d78ebd"/><stop offset="1" stop-color="#725fa9"/></linearGradient><linearGradient id="linear-gradient-2" x1="-290.7" y1="720.64" x2="-290.7" y2="638.4" gradientTransform="translate(758.56 -202.42) rotate(45)" gradientUnits="userSpaceOnUse"><stop offset="0" stop-color="#00baf2"/><stop offset="1" stop-color="#4763ae"/></linearGradient><linearGradient id="linear-gradient-3" x1="-359.82" y1="651.52" x2="-277.58" y2="651.52" gradientTransform="translate(758.56 -202.42) rotate(45)" gradientUnits="userSpaceOnUse"><stop offset="0" stop-color="#725fa9"/><stop offset="1" stop-color="#d78ebd"/></linearGradient><linearGradient id="linear-gradient-4" x1="-346.7" y1="638.4" x2="-346.7" y2="707.52" xlink:href="#linear-gradient-2"/></defs><path class="cls-1" d="M3.84,43.44h0a13.12,13.12,0,0,1,18.55,0L62,83a13.12,13.12,0,0,1,0,18.55h0a13.12,13.12,0,0,1-18.55,0L3.84,62A13.12,13.12,0,0,1,3.84,43.44Z" transform="translate(0 0)"/><path class="cls-2" d="M43.44,101.59h0a13.12,13.12,0,0,1,0-18.55L83,43.44a13.12,13.12,0,0,1,18.55,0h0a13.12,13.12,0,0,1,0,18.55L62,101.59A13.12,13.12,0,0,1,43.44,101.59Z" transform="translate(0 0)"/><path class="cls-3" d="M43.44,3.84h0A13.12,13.12,0,0,1,62,3.84l39.6,39.6a13.12,13.12,0,0,1,0,18.55h0A13.12,13.12,0,0,1,83,62l-39.6-39.6A13.12,13.12,0,0,1,43.44,3.84Z" transform="translate(0 0)"/><path class="cls-4" d="M22.39,43.44l9.28,9.28L62,22.39A13.12,13.12,0,1,0,43.44,3.84L3.84,43.44A13.12,13.12,0,0,1,22.39,43.44Z" transform="translate(0 0)"/></svg>