<svg id="Layer_1" data-name="Layer 1" xmlns="http://www.w3.org/2000/svg" xmlns:xlink="http://www.w3.org/1999/xlink" viewBox="0 0 104.09 104.09"><defs><style>.cls-1{fill:url(#linear-gradient);}.cls-2{fill:url(#linear-gradient-2);}</style><linearGradient id="linear-gradient" x1="-57.48" y1="146.34" x2="-62" y2="250.32" gradientTransform="translate(143.38 -133.81) rotate(9.22)" gradientUnits="userSpaceOnUse"><stop offset="0" stop-color="#00baf2"/><stop offset="0.19" stop-color="#04b5ee"/><stop offset="0.42" stop-color="#11a5e2"/><stop offset="0.69" stop-color="#268bcd"/><stop offset="0.97" stop-color="#4367b1"/><stop offset="1" stop-color="#4763ae"/></linearGradient><linearGradient id="linear-gradient-2" x1="-34.7" y1="151.78" x2="-95.43" y2="232.77" gradientTransform="translate(143.38 -133.81) rotate(9.22)" gradientUnits="userSpaceOnUse"><stop offset="0" stop-color="#c162a6"/><stop offset="0.12" stop-color="#be62a6" stop-opacity="0.97"/><stop offset="0.26" stop-color="#b462a7" stop-opacity="0.89"/><stop offset="0.43" stop-color="#a362a8" stop-opacity="0.76"/><stop offset="0.6" stop-color="#8d62a9" stop-opacity="0.57"/><stop offset="0.79" stop-color="#6f63ab" stop-opacity="0.33"/><stop offset="0.97" stop-color="#4c63ae" stop-opacity="0.04"/><stop offset="1" stop-color="#4763ae" stop-opacity="0"/></linearGradient></defs><path class="cls-1" d="M44.31,103.75a52,52,0,1,1,59.7-43A52.09,52.09,0,0,1,44.31,103.75ZM57.54,22.19A30.59,30.59,0,1,0,82.83,57.28,30.62,30.62,0,0,0,57.54,22.19Z" transform="translate(-0.6 -0.34)"/><path class="cls-2" d="M58.52.68A52,52,0,0,0,44.31,103.75l3.43-21.17A30.59,30.59,0,1,1,83.08,49.32,10.7,10.7,0,0,0,92,58.78h0A10.75,10.75,0,0,0,104.41,47,52.13,52.13,0,0,0,58.52.68Z" transform="translate(-0.6 -0.34)"/></svg>