<svg id="Layer_1" data-name="Layer 1" xmlns="http://www.w3.org/2000/svg" xmlns:xlink="http://www.w3.org/1999/xlink" viewBox="0 0 105 98.69"><defs><style>.cls-1{fill:none;}.cls-2{fill:url(#linear-gradient);}.cls-3{fill:url(#linear-gradient-2);}</style><linearGradient id="linear-gradient" x1="52.5" y1="96.32" x2="52.5" y2="5.6" gradientUnits="userSpaceOnUse"><stop offset="0" stop-color="#d78ebd"/><stop offset="0.16" stop-color="#d08bbc"/><stop offset="0.41" stop-color="#bb81b7"/><stop offset="0.71" stop-color="#9971b1"/><stop offset="1" stop-color="#725fa9"/></linearGradient><linearGradient id="linear-gradient-2" x1="0.86" y1="83.64" x2="102.5" y2="83.64" gradientUnits="userSpaceOnUse"><stop offset="0" stop-color="#4763ae"/><stop offset="0.24" stop-color="#278acd"/><stop offset="0.5" stop-color="#00baf2"/><stop offset="1" stop-color="#4763ae"/></linearGradient></defs><path class="cls-1" d="M46.93,38.16,31.32,65.21a6.42,6.42,0,0,0,5.56,9.64H68.12a6.43,6.43,0,0,0,5.57-9.64l-15.62-27A6.44,6.44,0,0,0,46.93,38.16Z" transform="translate(0 -3.37)"/><polygon class="cls-1" points="58.07 34.79 73.69 61.84 73.69 61.84 58.07 34.79"/><polygon class="cls-1" points="31.32 61.84 31.32 61.84 46.93 34.79 31.32 61.84"/><path class="cls-2" d="M31.32,65.21l15.61-27a6.44,6.44,0,0,1,11.14,0L73.69,65.21h0l18.4,31.87A29.3,29.3,0,0,0,101,87.43a29,29,0,0,0,0-29.27L77.85,18a29.28,29.28,0,0,0-50.7,0L4,58.16A29,29,0,0,0,4,87.43a29.3,29.3,0,0,0,8.94,9.65L31.32,65.21Z" transform="translate(0 -3.37)"/><path class="cls-3" d="M73.69,65.21a6.43,6.43,0,0,1-5.57,9.64H36.88a6.42,6.42,0,0,1-5.56-9.64L12.91,97.08a29.1,29.1,0,0,0,16.4,5H75.69a29.1,29.1,0,0,0,16.4-5Z" transform="translate(0 -3.37)"/></svg>