<svg id="Layer_1" data-name="Layer 1" xmlns="http://www.w3.org/2000/svg" xmlns:xlink="http://www.w3.org/1999/xlink" viewBox="0 0 97.32 105.24"><defs><style>.cls-1{fill:url(#linear-gradient);}.cls-2{fill:url(#linear-gradient-2);}</style><linearGradient id="linear-gradient" x1="1719.31" y1="55.49" x2="1669.95" y2="140.59" gradientTransform="translate(-42.58 1755.66) rotate(-90)" gradientUnits="userSpaceOnUse"><stop offset="0" stop-color="#00baf2"/><stop offset="0.19" stop-color="#04b5ee"/><stop offset="0.42" stop-color="#11a5e2"/><stop offset="0.69" stop-color="#268bcd"/><stop offset="0.97" stop-color="#4367b1"/><stop offset="1" stop-color="#4763ae"/></linearGradient><linearGradient id="linear-gradient-2" x1="1714.16" y1="87.96" x2="1745.94" y2="139.02" gradientTransform="translate(-42.58 1755.66) rotate(-90)" gradientUnits="userSpaceOnUse"><stop offset="0" stop-color="#725fa9"/><stop offset="0.29" stop-color="#9971b1"/><stop offset="0.59" stop-color="#bb81b7"/><stop offset="0.84" stop-color="#d08bbc"/><stop offset="1" stop-color="#d78ebd"/></linearGradient></defs><path class="cls-1" d="M41.58,20,13.75,35.77l-.21.13c-.4.24-.79.49-1.18.76-.16.11-.32.21-.48.33-.35.25-.69.53-1,.81-.18.14-.35.29-.52.44s-.56.53-.84.8l-.57.59c-.22.25-.44.51-.65.78s-.41.5-.6.76-.35.49-.52.74-.39.6-.57.9c-.07.11-.14.21-.2.32h0c-.09.15-.15.31-.24.46s-.31.61-.46.92-.27.6-.4.91-.21.53-.3.8-.24.71-.35,1.06-.13.48-.2.73-.18.75-.25,1.13-.09.49-.12.73S4,50.61,3.93,51s-.05.56-.06.84,0,.66,0,1,0,.66,0,1,0,.56.06.84.08.74.14,1.11.07.49.12.74.16.75.25,1.13.13.48.2.72.22.71.35,1.06.2.54.3.8.26.61.4.92.3.61.46.91c.09.15.15.31.24.46h0c.06.11.13.21.2.32q.27.46.57.9l.52.75c.19.25.39.51.6.76s.43.52.65.77l.57.59c.28.28.55.55.84.81l.52.44q.5.42,1,.81l.48.33c.39.26.78.51,1.18.75l.21.13,58.13,33A19.6,19.6,0,0,0,98.6,95.51h0a19.59,19.59,0,0,0-7.36-26.72L63.34,52.94A41.57,41.57,0,0,1,41.58,20Z" transform="translate(-3.84 -0.19)"/><path class="cls-2" d="M91.24,36.84A19.61,19.61,0,0,0,98.6,10.11h0A19.6,19.6,0,0,0,71.88,2.75L41.58,20a41.57,41.57,0,0,0,21.76,33l-.22-.13Z" transform="translate(-3.84 -0.19)"/></svg>